<svg width="101" height="25" viewBox="0 0 101 25" fill="none" xmlns="http://www.w3.org/2000/svg">
<path fill-rule="evenodd" clip-rule="evenodd" d="M11.4889 1.16253C10.2263 2.44897 10.4386 2.7195 12.7107 2.7195C14.9976 2.7195 15.1906 2.44919 13.817 1.16987C13.2224 0.616127 12.676 0.163086 12.6028 0.163086C12.5297 0.163086 12.0284 0.612793 11.4889 1.16253ZM8.05753 4.59369L6.97806 5.68961L8.01841 6.34939C10.5988 7.98594 13.6912 8.12554 16.5095 6.73263C17.4156 6.28492 18.1569 5.84522 18.1569 5.75563C18.1569 5.66605 17.675 5.11786 17.0859 4.53789L16.0151 3.48287L15.0297 3.92991C13.723 4.52277 11.7052 4.52589 10.4079 3.93724C9.87481 3.69539 9.37086 3.49754 9.28794 3.49754C9.20503 3.49754 8.65129 3.99082 8.05753 4.59369ZM4.69974 7.95171C4.06041 8.60104 3.69028 9.13855 3.81899 9.23125C5.45799 10.4108 7.10566 11.3368 8.23315 11.7121C11.1948 12.6975 14.5277 12.6608 17.3789 11.6114C19.0348 11.0018 21.3802 9.55313 21.3802 9.14011C21.3802 9.00362 20.9483 8.42342 20.4206 7.85078L19.4611 6.80977L18.4435 7.48377C16.5955 8.70796 15.1601 9.13344 12.8218 9.15055C10.4257 9.16812 9.20014 8.83311 7.15501 7.60159C6.45188 7.17834 5.86013 6.832 5.83967 6.832C5.81945 6.832 5.30638 7.33594 4.69974 7.95171ZM1.42908 11.2633C0.84844 11.865 0.373169 12.4063 0.373169 12.4659C0.373169 12.7767 3.38374 14.7882 4.93026 15.5109C7.67629 16.794 9.36242 17.1497 12.7107 17.1521C15.0359 17.1539 15.9388 17.0579 17.332 16.6597C19.6832 15.988 21.5118 15.1135 23.4614 13.7281L25.0982 12.565L23.9351 11.3875L22.772 10.2098L21.7428 11.0001C20.4448 11.9966 17.9998 13.1617 16.2674 13.6092C14.4806 14.0709 11.0152 14.068 9.11077 13.6034C7.27705 13.1559 4.65328 11.8928 3.49088 10.8978C3.02117 10.4955 2.60259 10.1669 2.56079 10.1676C2.519 10.1682 2.00972 10.6613 1.42908 11.2633ZM9.04031 21.1406L12.7058 24.8381L16.3125 21.2362C18.2963 19.2553 19.8815 17.5965 19.8353 17.5503C19.789 17.504 19.5674 17.5607 19.3431 17.6761C17.2008 18.7773 10.822 19.087 7.82012 18.2354C6.96427 17.9926 6.06397 17.715 5.81945 17.6185C5.57492 17.522 7.02429 19.107 9.04031 21.1406Z" fill="white"/>
<path d="M31.139 20.1698V4.60902H37.9413C39.6308 4.60902 41.1128 4.93505 42.3873 5.58712C43.6618 6.23919 44.6547 7.1432 45.366 8.29915C46.0774 9.45509 46.4331 10.8185 46.4331 12.3894C46.4331 13.9455 46.0774 15.3089 45.366 16.4797C44.6547 17.6356 43.6618 18.5396 42.3873 19.1917C41.1128 19.8438 39.6308 20.1698 37.9413 20.1698H31.139ZM34.0289 17.7245H37.8079C38.9787 17.7245 39.9865 17.5022 40.8312 17.0576C41.6907 16.6131 42.3502 15.9906 42.8096 15.1904C43.2839 14.3901 43.521 13.4564 43.521 12.3894C43.521 11.3076 43.2839 10.3739 42.8096 9.58847C42.3502 8.7882 41.6907 8.16577 40.8312 7.72117C39.9865 7.27658 38.9787 7.05428 37.8079 7.05428H34.0289V17.7245Z" fill="white"/>
<path d="M56.7959 20.3921C55.5807 20.3921 54.4618 20.192 53.4393 19.7919C52.4167 19.3918 51.5275 18.836 50.7717 18.1247C50.0159 17.3985 49.4305 16.5538 49.0155 15.5905C48.6006 14.6124 48.3931 13.5454 48.3931 12.3894C48.3931 11.2335 48.6006 10.1739 49.0155 9.21056C49.4305 8.23246 50.0159 7.38773 50.7717 6.67638C51.5275 5.95021 52.4167 5.38706 53.4393 4.98692C54.4618 4.58679 55.5733 4.38672 56.7737 4.38672C57.9889 4.38672 59.1004 4.58679 60.1082 4.98692C61.1307 5.38706 62.0199 5.95021 62.7757 6.67638C63.5315 7.38773 64.1169 8.23246 64.5319 9.21056C64.9468 10.1739 65.1543 11.2335 65.1543 12.3894C65.1543 13.5454 64.9468 14.6124 64.5319 15.5905C64.1169 16.5686 63.5315 17.4133 62.7757 18.1247C62.0199 18.836 61.1307 19.3918 60.1082 19.7919C59.1004 20.192 57.9963 20.3921 56.7959 20.3921ZM56.7737 17.8579C57.5592 17.8579 58.2853 17.7245 58.9522 17.4578C59.6191 17.191 60.1971 16.8131 60.6861 16.3241C61.1752 15.8202 61.5531 15.2422 61.8198 14.5902C62.1014 13.9233 62.2422 13.1897 62.2422 12.3894C62.2422 11.5891 62.1014 10.863 61.8198 10.2109C61.5531 9.54401 61.1752 8.96604 60.6861 8.47698C60.1971 7.97311 59.6191 7.5878 58.9522 7.32104C58.2853 7.05428 57.5592 6.92091 56.7737 6.92091C55.9883 6.92091 55.2621 7.05428 54.5952 7.32104C53.9431 7.5878 53.3652 7.97311 52.8613 8.47698C52.3722 8.96604 51.9869 9.54401 51.7053 10.2109C51.4386 10.863 51.3052 11.5891 51.3052 12.3894C51.3052 13.1749 51.4386 13.901 51.7053 14.5679C51.9869 15.2348 52.3722 15.8202 52.8613 16.3241C53.3503 16.8131 53.9283 17.191 54.5952 17.4578C55.2621 17.7245 55.9883 17.8579 56.7737 17.8579Z" fill="white"/>
<path d="M68.2175 20.1698V4.60902H70.5961L77.3984 15.9684H76.1535L82.8446 4.60902H85.2232L85.2454 20.1698H82.5112L82.489 8.89935H83.0669L77.3761 18.3914H76.0868L70.3071 8.89935H70.974V20.1698H68.2175Z" fill="white"/>
<path d="M89.4486 20.1698V4.60902H92.3384V17.7245H100.475V20.1698H89.4486Z" fill="white"/>
<rect x="41.9427" y="10.833" width="10.6703" height="3.11216" rx="1.55608" fill="url(#paint0_linear_16_577)"/>
<defs>
<linearGradient id="paint0_linear_16_577" x1="53.2799" y1="10.1661" x2="40.609" y2="14.1675" gradientUnits="userSpaceOnUse">
<stop stop-color="#FF2DF7"/>
<stop offset="1" stop-color="#00E0FF"/>
</linearGradient>
</defs>
</svg>
